<svg xmlns="http://www.w3.org/2000/svg" viewBox="0 0 1200 675" role="img" aria-labelledby="title desc">
  <title id="title">SRE error budget and incident review</title>
  <desc id="desc">Reliability board with error budget gauge, alert quality, and incident review loop.</desc>
  <defs>
    <linearGradient id="bg" x1="0" x2="1" y1="0" y2="1">
      <stop offset="0" stop-color="#111827"/>
      <stop offset="0.5" stop-color="#164e63"/>
      <stop offset="1" stop-color="#365314"/>
    </linearGradient>
  </defs>
  <rect width="1200" height="675" fill="url(#bg)"/>
  <rect x="86" y="76" width="1028" height="523" rx="34" fill="#ffffff" fill-opacity="0.13" stroke="#bef264" stroke-opacity="0.55"/>
  <text x="126" y="162" fill="#f8fafc" font-family="Arial, sans-serif" font-size="56" font-weight="800">SRE Reliability Loop</text>
  <text x="128" y="212" fill="#d9f99d" font-family="Arial, sans-serif" font-size="24">Error Budget · Alert Quality · Incident Review</text>
  <circle cx="330" cy="405" r="120" fill="none" stroke="#334155" stroke-width="34"/>
  <path d="M210 405a120 120 0 0 1 220 -66" fill="none" stroke="#22c55e" stroke-width="34" stroke-linecap="round"/>
  <path d="M430 339a120 120 0 0 1 20 128" fill="none" stroke="#f97316" stroke-width="34" stroke-linecap="round"/>
  <text x="260" y="398" fill="#fff" font-family="Arial, sans-serif" font-size="28" font-weight="800">Budget</text>
  <text x="274" y="434" fill="#bbf7d0" font-family="Arial, sans-serif" font-size="22">burn rate</text>
  <g font-family="Arial, sans-serif" font-size="24" font-weight="700">
    <rect x="580" y="300" width="250" height="72" rx="16" fill="#0f766e"/>
    <text x="636" y="346" fill="#fff">Detect</text>
    <rect x="760" y="406" width="250" height="72" rx="16" fill="#7c2d12"/>
    <text x="822" y="452" fill="#fff">Review</text>
    <rect x="515" y="406" width="250" height="72" rx="16" fill="#1e40af"/>
    <text x="590" y="452" fill="#fff">Improve</text>
  </g>
</svg>
